{
   "accessors" : 
   [
      {
         "bufferView" : 0,
         "byteOffset" : 0,
         "componentType" : 5126,
         "count" : 2601,
         "max" : [ 0.05000000074505806, 0.049901336431503296, 0.05000000074505806 ],
         "min" : [ -0.05000000074505806, -0.049901336431503296, -0.05000000074505806 ],
         "type" : "VEC3"
      },
      {
         "bufferView" : 1,
         "byteOffset" : 0,
         "componentType" : 5126,
         "count" : 2601,
         "normalized" : false,
         "type" : "VEC2"
      },
      {
         "bufferView" : 2,
         "byteOffset" : 0,
         "componentType" : 5125,
         "count" : 15000,
         "type" : "SCALAR"
      },
      {
         "bufferView" : 3,
         "byteOffset" : 0,
         "componentType" : 5126,
         "count" : 24,
         "max" : [ 0.050000000000000003, 0.037499999999999999, 0.025000000000000001 ],
         "min" : [ -0.050000000000000003, -0.037499999999999999, -0.025000000000000001 ],
         "type" : "VEC3"
      },
      {
         "bufferView" : 4,
         "byteOffset" : 0,
         "componentType" : 5126,
         "count" : 24,
         "normalized" : false,
         "type" : "VEC2"
      },
      {
         "bufferView" : 5,
         "byteOffset" : 0,
         "componentType" : 5125,
         "count" : 36,
         "type" : "SCALAR"
      },
      {
         "bufferView" : 6,
         "byteOffset" : 0,
         "componentType" : 5126,
         "count" : 24,
         "max" : [ 0.050000000000000003, 0.037499999999999999, 0.025000000000000001 ],
         "min" : [ -0.050000000000000003, -0.037499999999999999, -0.025000000000000001 ],
         "type" : "VEC3"
      },
      {
         "bufferView" : 7,
         "byteOffset" : 0,
         "componentType" : 5126,
         "count" : 24,
         "normalized" : false,
         "type" : "VEC2"
      },
      {
         "bufferView" : 8,
         "byteOffset" : 0,
         "componentType" : 5125,
         "count" : 36,
         "type" : "SCALAR"
      }
   ],
   "asset" : 
   {
      "generator" : "VTK",
      "version" : "2.0"
   },
   "bufferViews" : 
   [
      {
         "buffer" : 0,
         "byteLength" : 31212,
         "byteOffset" : 0
      },
      {
         "buffer" : 1,
         "byteLength" : 20808,
         "byteOffset" : 0
      },
      {
         "buffer" : 2,
         "byteLength" : 60000,
         "byteOffset" : 0
      },
      {
         "buffer" : 3,
         "byteLength" : 288,
         "byteOffset" : 0
      },
      {
         "buffer" : 4,
         "byteLength" : 192,
         "byteOffset" : 0
      },
      {
         "buffer" : 5,
         "byteLength" : 144,
         "byteOffset" : 0
      },
      {
         "buffer" : 6,
         "byteLength" : 288,
         "byteOffset" : 0
      },
      {
         "buffer" : 7,
         "byteLength" : 192,
         "byteOffset" : 0
      },
      {
         "buffer" : 8,
         "byteLength" : 144,
         "byteOffset" : 0
      }
   ],
   "buffers" : 
   [
      {
         "byteLength" : 31212,
         "uri" : "data:application/octet-stream;base64,"
      },
      {
         "byteLength" : 20808,
         "uri" : "data:application/octet-stream;base64,"
      },
      {
         "byteLength" : 60000,
         "uri" : "data:application/octet-stream;base64,"
      },
      {
         "byteLength" : 288,
         "uri" : "data:application/octet-stream;base64,"
      },
      {
         "byteLength" : 192,
         "uri" : "data:application/octet-stream;base64,"
      },
      {
         "byteLength" : 144,
         "uri" : "data:application/octet-stream;base64,"
      },
      {
         "byteLength" : 288,
         "uri" : "data:application/octet-stream;base64,"
      },
      {
         "byteLength" : 192,
         "uri" : "data:application/octet-stream;base64,"
      },
      {
         "byteLength" : 144,
         "uri" : "data:application/octet-stream;base64,"
      }
   ],
   "cameras" : 
   [
      {
         "perspective" : 
         {
            "aspectRatio" : 1.3333333333333333,
            "yfov" : 0.78539816339744828,
            "zfar" : 10.0,
            "znear" : 0.01
         },
         "type" : "perspective"
      }
   ],
   "materials" : 
   [
      {
         "pbrMetallicRoughness" : 
         {
            "baseColorFactor" : [ 1.0, 1.0, 1.0, 1.0 ],
            "metallicFactor" : 0.0,
            "roughnessFactor" : 1.0
         }
      },
      {
         "pbrMetallicRoughness" : 
         {
            "baseColorFactor" : [ 1.0, 1.0, 1.0, 1.0 ],
            "metallicFactor" : 0.0,
            "roughnessFactor" : 1.0
         }
      },
      {
         "pbrMetallicRoughness" : 
         {
            "baseColorFactor" : [ 1.0, 1.0, 1.0, 1.0 ],
            "metallicFactor" : 0.0,
            "roughnessFactor" : 1.0
         }
      }
   ],
   "meshes" : 
   [
      {
         "name" : "mesh0",
         "primitives" : 
         [
            {
               "attributes" : 
               {
                  "POSITION" : 0,
                  "TEXCOORD_0" : 1
               },
               "indices" : 2,
               "material" : 0,
               "mode" : 4
            }
         ]
      },
      {
         "name" : "mesh1",
         "primitives" : 
         [
            {
               "attributes" : 
               {
                  "POSITION" : 3,
                  "TEXCOORD_0" : 4
               },
               "indices" : 5,
               "material" : 1,
               "mode" : 4
            }
         ]
      },
      {
         "name" : "mesh2",
         "primitives" : 
         [
            {
               "attributes" : 
               {
                  "POSITION" : 6,
                  "TEXCOORD_0" : 7
               },
               "indices" : 8,
               "material" : 2,
               "mode" : 4
            }
         ]
      }
   ],
   "nodes" : 
   [
      {
         "matrix" : 
         [
            1.0,
            0.0,
            0.0,
            0.0,
            0.0,
            1.0,
            0.0,
            0.0,
            0.0,
            0.0,
            1.0,
            0.0,
            0.0,
            0.0,
            0.29999999999999999,
            1.0
         ],
         "mesh" : 0,
         "name" : "mesh0"
      },
      {
         "matrix" : 
         [
            1.0,
            0.0,
            0.0,
            0.0,
            0.0,
            1.0,
            0.0,
            0.0,
            0.0,
            0.0,
            1.0,
            0.0,
            0.0,
            0.25,
            0.0,
            1.0
         ],
         "mesh" : 1,
         "name" : "mesh1"
      },
      {
         "matrix" : 
         [
            1.0,
            0.0,
            0.0,
            0.0,
            0.0,
            1.0,
            0.0,
            0.0,
            0.0,
            0.0,
            1.0,
            0.0,
            0.0,
            -0.25,
            0.0,
            1.0
         ],
         "mesh" : 2,
         "name" : "mesh2"
      },
      {
         "camera" : 0,
         "matrix" : 
         [
            0.00079632671073323808,
            0.99999968293183472,
            0.0,
            0.0,
            -0.22720202265453573,
            0.00018092709673864772,
            0.97384763087819526,
            0.0,
            0.97384732210211356,
            -0.00077550088065258985,
            0.22720209469308708,
            0.0,
            0.59999999999999998,
            1.5178830414797062e-17,
            0.29999999999999999,
            1.0
         ],
         "name" : "Camera Node"
      },
      {
         "children" : [ 0, 1, 2, 3 ],
         "name" : "Renderer Node"
      }
   ],
   "scene" : 0,
   "scenes" : 
   [
      {
         "name" : "Layer 0",
         "nodes" : [ 4 ]
      }
   ]
}