{
   "accessors" : 
   [
      {
         "bufferView" : 0,
         "byteOffset" : 0,
         "componentType" : 5126,
         "count" : 24,
         "max" : [ 0.050000000000000003, 0.037499999999999999, 0.025000000000000001 ],
         "min" : [ -0.050000000000000003, -0.037499999999999999, -0.025000000000000001 ],
         "type" : "VEC3"
      },
      {
         "bufferView" : 1,
         "byteOffset" : 0,
         "componentType" : 5126,
         "count" : 24,
         "normalized" : false,
         "type" : "VEC2"
      },
      {
         "bufferView" : 2,
         "byteOffset" : 0,
         "componentType" : 5125,
         "count" : 36,
         "type" : "SCALAR"
      },
      {
         "bufferView" : 4,
         "byteOffset" : 0,
         "componentType" : 5126,
         "count" : 24,
         "max" : [ 0.050000000000000003, 0.037499999999999999, 0.025000000000000001 ],
         "min" : [ -0.050000000000000003, -0.037499999999999999, -0.025000000000000001 ],
         "type" : "VEC3"
      },
      {
         "bufferView" : 5,
         "byteOffset" : 0,
         "componentType" : 5126,
         "count" : 24,
         "normalized" : false,
         "type" : "VEC2"
      },
      {
         "bufferView" : 6,
         "byteOffset" : 0,
         "componentType" : 5125,
         "count" : 36,
         "type" : "SCALAR"
      }
   ],
   "asset" : 
   {
      "generator" : "VTK",
      "version" : "2.0"
   },
   "bufferViews" : 
   [
      {
         "buffer" : 0,
         "byteLength" : 288,
         "byteOffset" : 0
      },
      {
         "buffer" : 1,
         "byteLength" : 192,
         "byteOffset" : 0
      },
      {
         "buffer" : 2,
         "byteLength" : 144,
         "byteOffset" : 0
      },
      {
         "buffer" : 3,
         "byteLength" : 1123,
         "byteOffset" : 0
      },
      {
         "buffer" : 4,
         "byteLength" : 288,
         "byteOffset" : 0
      },
      {
         "buffer" : 5,
         "byteLength" : 192,
         "byteOffset" : 0
      },
      {
         "buffer" : 6,
         "byteLength" : 144,
         "byteOffset" : 0
      }
   ],
   "buffers" : 
   [
      {
         "byteLength" : 288,
         "uri" : "data:application/octet-stream;base64,"
      },
      {
         "byteLength" : 192,
         "uri" : "data:application/octet-stream;base64,"
      },
      {
         "byteLength" : 144,
         "uri" : "data:application/octet-stream;base64,"
      },
      {
         "byteLength" : 1123,
         "uri" : "data:application/octet-stream;base64,"
      },
      {
         "byteLength" : 288,
         "uri" : "data:application/octet-stream;base64,"
      },
      {
         "byteLength" : 192,
         "uri" : "data:application/octet-stream;base64,"
      },
      {
         "byteLength" : 144,
         "uri" : "data:application/octet-stream;base64,"
      }
   ],
   "cameras" : 
   [
      {
         "perspective" : 
         {
            "aspectRatio" : 1.3333333333333333,
            "yfov" : 0.78539816339744828,
            "zfar" : 10.0,
            "znear" : 0.01
         },
         "type" : "perspective"
      }
   ],
   "images" : 
   [
      {
         "bufferView" : 3,
         "mimeType" : "image/png"
      }
   ],
   "materials" : 
   [
      {
         "pbrMetallicRoughness" : 
         {
            "baseColorFactor" : [ 1.0, 1.0, 1.0, 1.0 ],
            "baseColorTexture" : 
            {
               "index" : 0,
               "texCoord" : 0
            },
            "metallicFactor" : 0.0,
            "roughnessFactor" : 1.0
         }
      },
      {
         "pbrMetallicRoughness" : 
         {
            "baseColorFactor" : [ 1.0, 0.25, 0.25, 1.0 ],
            "metallicFactor" : 0.0,
            "roughnessFactor" : 1.0
         }
      }
   ],
   "meshes" : 
   [
      {
         "name" : "mesh0",
         "primitives" : 
         [
            {
               "attributes" : 
               {
                  "POSITION" : 0,
                  "TEXCOORD_0" : 1
               },
               "indices" : 2,
               "material" : 0,
               "mode" : 4
            }
         ]
      },
      {
         "name" : "mesh1",
         "primitives" : 
         [
            {
               "attributes" : 
               {
                  "POSITION" : 3,
                  "TEXCOORD_0" : 4
               },
               "indices" : 5,
               "material" : 1,
               "mode" : 4
            }
         ]
      }
   ],
   "nodes" : 
   [
      {
         "matrix" : 
         [
            1.0,
            0.0,
            0.0,
            0.0,
            0.0,
            1.0,
            0.0,
            0.0,
            0.0,
            0.0,
            1.0,
            0.0,
            0.0,
            0.10000000000000001,
            0.0,
            1.0
         ],
         "mesh" : 0,
         "name" : "mesh0"
      },
      {
         "matrix" : 
         [
            1.0,
            0.0,
            0.0,
            0.0,
            0.0,
            1.0,
            0.0,
            0.0,
            0.0,
            0.0,
            1.0,
            0.0,
            0.0,
            -0.10000000000000001,
            0.0,
            1.0
         ],
         "mesh" : 1,
         "name" : "mesh1"
      },
      {
         "camera" : 0,
         "matrix" : 
         [
            0.00079632671073324817,
            0.99999968293183461,
            0.0,
            0.0,
            -0.50484594452922937,
            0.00040202243790249793,
            0.86320936664887371,
            0.0,
            0.86320909295266346,
            -0.00068739667561762798,
            0.50484610459985757,
            0.0,
            0.29999999999999993,
            4.5536491244391186e-18,
            0.20000000000000004,
            1.0
         ],
         "name" : "Camera Node"
      },
      {
         "children" : [ 0, 1, 2 ],
         "name" : "Renderer Node"
      }
   ],
   "samplers" : 
   [
      {
         "magFilter" : 9729,
         "minFilter" : 9729,
         "wrapS" : 33071,
         "wrapT" : 33071
      }
   ],
   "scene" : 0,
   "scenes" : 
   [
      {
         "name" : "Layer 0",
         "nodes" : [ 3 ]
      }
   ],
   "textures" : 
   [
      {
         "sampler" : 0,
         "source" : 0
      }
   ]
}